<?xml version="1.0" encoding="UTF-8" standalone="no"?>
<!-- Created with Inkscape (http://www.inkscape.org/) -->

<svg
   xmlns:dc="http://purl.org/dc/elements/1.1/"
   xmlns:cc="http://creativecommons.org/ns#"
   xmlns:rdf="http://www.w3.org/1999/02/22-rdf-syntax-ns#"
   xmlns:svg="http://www.w3.org/2000/svg"
   xmlns="http://www.w3.org/2000/svg"
   xmlns:sodipodi="http://sodipodi.sourceforge.net/DTD/sodipodi-0.dtd"
   xmlns:inkscape="http://www.inkscape.org/namespaces/inkscape"
   version="1.1"
   width="1220mm"
   height="610mm"
   id="svg2"
   inkscape:version="0.92.2 (5c3e80d, 2017-08-06)"
   sodipodi:docname="Mall.svg"
   viewBox="0 0 1220 610">
  <sodipodi:namedview
     pagecolor="#ffffff"
     bordercolor="#666666"
     borderopacity="1"
     objecttolerance="10"
     gridtolerance="10"
     guidetolerance="10"
     inkscape:pageopacity="0"
     inkscape:pageshadow="2"
     inkscape:window-width="2560"
     inkscape:window-height="1537"
     id="namedview91444"
     showgrid="false"
     inkscape:zoom="0.35353124"
     inkscape:cx="1230.8064"
     inkscape:cy="1080.7086"
     inkscape:window-x="1432"
     inkscape:window-y="757"
     inkscape:window-maximized="1"
     inkscape:current-layer="svg2"
     units="mm"
     inkscape:document-units="mm" />
  <defs
     id="defs4">
    <symbol
       id="*PAPER_SPACE" />
    <symbol
       id="*MODEL_SPACE" />
    <pattern
       height="8"
       width="8"
       patternUnits="userSpaceOnUse"
       y="0"
       x="0"
       id="Hatch">
      <path
         linecap="square"
         stroke="#000000"
         stroke-width="0.25"
         d="M8 4 l-4,4"
         id="path617966" />
      <path
         linecap="square"
         stroke="#000000"
         stroke-width="0.25"
         d="M6 2 l-4,4"
         id="path617968" />
      <path
         linecap="square"
         stroke="#000000"
         stroke-width="0.25"
         d="M4 0 l-4,4"
         id="path617970" />
    </pattern>
    <marker
       refX="0"
       refY="0"
       orient="auto"
       id="DistanceX"
       style="overflow:visible">
      <path
         d="M 3,-3 -3,3 M 0,-5 V 5"
         id="path617963"
         style="stroke:#000000;stroke-width:0.5"
         inkscape:connector-curvature="0" />
    </marker>
    <symbol
       id="$PAPER_SPACE" />
    <symbol
       id="$MODEL_SPACE" />
    <pattern
       id="Hatch-0"
       x="0"
       y="0"
       patternUnits="userSpaceOnUse"
       width="8"
       height="8">
      <path
         id="path73478"
         d="M8 4 l-4,4"
         stroke-width="0.25"
         stroke="#000000"
         linecap="square" />
      <path
         id="path73480"
         d="M6 2 l-4,4"
         stroke-width="0.25"
         stroke="#000000"
         linecap="square" />
      <path
         id="path73482"
         d="M4 0 l-4,4"
         stroke-width="0.25"
         stroke="#000000"
         linecap="square" />
    </pattern>
    <marker
       refX="0"
       refY="0"
       orient="auto"
       id="DistanceX-5"
       style="overflow:visible">
      <path
         d="M 3,-3 -3,3 M 0,-5 V 5"
         id="path73475"
         style="stroke:#000000;stroke-width:0.5"
         inkscape:connector-curvature="0" />
    </marker>
    <symbol
       id="$PAPER_SPACE-1" />
    <symbol
       id="$MODEL_SPACE-0" />
    <pattern
       height="8"
       width="8"
       patternUnits="userSpaceOnUse"
       y="0"
       x="0"
       id="Hatch-1">
      <path
         linecap="square"
         stroke="#000000"
         stroke-width="0.25"
         d="M8 4 l-4,4"
         id="path44235" />
      <path
         linecap="square"
         stroke="#000000"
         stroke-width="0.25"
         d="M6 2 l-4,4"
         id="path44237" />
      <path
         linecap="square"
         stroke="#000000"
         stroke-width="0.25"
         d="M4 0 l-4,4"
         id="path44239" />
    </pattern>
    <marker
       refX="0"
       refY="0"
       orient="auto"
       id="DistanceX-1"
       style="overflow:visible">
      <path
         d="M 3,-3 -3,3 M 0,-5 V 5"
         id="path44232"
         style="stroke:#000000;stroke-width:0.5"
         inkscape:connector-curvature="0" />
    </marker>
    <symbol
       id="$PAPER_SPACE-5" />
    <symbol
       id="$MODEL_SPACE-4" />
    <pattern
       id="Hatch-04"
       x="0"
       y="0"
       patternUnits="userSpaceOnUse"
       width="8"
       height="8">
      <path
         id="path101669"
         d="M8 4 l-4,4"
         stroke-width="0.25"
         stroke="#000000"
         linecap="square" />
      <path
         id="path101671"
         d="M6 2 l-4,4"
         stroke-width="0.25"
         stroke="#000000"
         linecap="square" />
      <path
         id="path101673"
         d="M4 0 l-4,4"
         stroke-width="0.25"
         stroke="#000000"
         linecap="square" />
    </pattern>
    <marker
       orient="auto"
       id="DistanceX-2"
       style="overflow:visible"
       refX="0"
       refY="0">
      <path
         id="path101666"
         d="M 3,-3 -3,3 M 0,-5 V 5"
         style="stroke:#000000;stroke-width:0.5"
         inkscape:connector-curvature="0" />
    </marker>
    <symbol
       id="*PAPER_SPACE-9" />
    <symbol
       id="*MODEL_SPACE-2" />
    <pattern
       id="Hatch-9"
       x="0"
       y="0"
       patternUnits="userSpaceOnUse"
       width="8"
       height="8">
      <path
         id="path145873"
         d="M8 4 l-4,4"
         stroke-width="0.25"
         stroke="#000000"
         linecap="square" />
      <path
         id="path145875"
         d="M6 2 l-4,4"
         stroke-width="0.25"
         stroke="#000000"
         linecap="square" />
      <path
         id="path145877"
         d="M4 0 l-4,4"
         stroke-width="0.25"
         stroke="#000000"
         linecap="square" />
    </pattern>
    <marker
       orient="auto"
       id="DistanceX-24"
       style="overflow:visible"
       refX="0"
       refY="0">
      <path
         id="path145870"
         d="M 3,-3 -3,3 M 0,-5 V 5"
         style="stroke:#000000;stroke-width:0.5"
         inkscape:connector-curvature="0" />
    </marker>
    <symbol
       id="$PAPER_SPACE-4" />
    <symbol
       id="$MODEL_SPACE-1" />
    <pattern
       id="Hatch-8"
       x="0"
       y="0"
       patternUnits="userSpaceOnUse"
       width="8"
       height="8">
      <path
         id="path1947"
         d="M8 4 l-4,4"
         stroke-width="0.25"
         stroke="#000000"
         linecap="square" />
      <path
         id="path1949"
         d="M6 2 l-4,4"
         stroke-width="0.25"
         stroke="#000000"
         linecap="square" />
      <path
         id="path1951"
         d="M4 0 l-4,4"
         stroke-width="0.25"
         stroke="#000000"
         linecap="square" />
    </pattern>
    <marker
       orient="auto"
       id="DistanceX-55"
       style="overflow:visible"
       refX="0"
       refY="0">
      <path
         id="path1944"
         d="M 3,-3 -3,3 M 0,-5 V 5"
         style="stroke:#000000;stroke-width:0.5"
         inkscape:connector-curvature="0" />
    </marker>
    <symbol
       id="*PAPER_SPACE-7" />
    <symbol
       id="*MODEL_SPACE-0" />
    <pattern
       id="Hatch-82"
       x="0"
       y="0"
       patternUnits="userSpaceOnUse"
       width="8"
       height="8">
      <path
         id="path1175"
         d="M8 4 l-4,4"
         stroke-width="0.25"
         stroke="#000000"
         linecap="square" />
      <path
         id="path1177"
         d="M6 2 l-4,4"
         stroke-width="0.25"
         stroke="#000000"
         linecap="square" />
      <path
         id="path1179"
         d="M4 0 l-4,4"
         stroke-width="0.25"
         stroke="#000000"
         linecap="square" />
    </pattern>
    <marker
       orient="auto"
       id="DistanceX-29"
       style="overflow:visible"
       refX="0"
       refY="0">
      <path
         id="path1172"
         d="M 3,-3 -3,3 M 0,-5 V 5"
         style="stroke:#000000;stroke-width:0.5"
         inkscape:connector-curvature="0" />
    </marker>
    <symbol
       id="*PAPER_SPACE-76" />
    <symbol
       id="*MODEL_SPACE-5" />
    <pattern
       id="Hatch-3"
       x="0"
       y="0"
       patternUnits="userSpaceOnUse"
       width="8"
       height="8">
      <path
         id="path1809-9"
         d="M8 4 l-4,4"
         stroke-width="0.25"
         stroke="#000000"
         linecap="square" />
      <path
         id="path1811-8"
         d="M6 2 l-4,4"
         stroke-width="0.25"
         stroke="#000000"
         linecap="square" />
      <path
         id="path1813-6"
         d="M4 0 l-4,4"
         stroke-width="0.25"
         stroke="#000000"
         linecap="square" />
    </pattern>
    <marker
       orient="auto"
       id="DistanceX-0"
       style="overflow:visible"
       refX="0"
       refY="0">
      <path
         id="path1806"
         d="M 3,-3 -3,3 M 0,-5 V 5"
         style="stroke:#000000;stroke-width:0.5"
         inkscape:connector-curvature="0" />
    </marker>
    <symbol
       id="*PAPER_SPACE-6" />
    <symbol
       id="*MODEL_SPACE-7" />
    <pattern
       id="Hatch-5"
       x="0"
       y="0"
       patternUnits="userSpaceOnUse"
       width="8"
       height="8">
      <path
         id="path1851"
         d="M8 4 l-4,4"
         stroke-width="0.25"
         stroke="#000000"
         linecap="square" />
      <path
         id="path1853"
         d="M6 2 l-4,4"
         stroke-width="0.25"
         stroke="#000000"
         linecap="square" />
      <path
         id="path1855"
         d="M4 0 l-4,4"
         stroke-width="0.25"
         stroke="#000000"
         linecap="square" />
    </pattern>
    <marker
       orient="auto"
       id="DistanceX-6"
       style="overflow:visible"
       refX="0"
       refY="0">
      <path
         id="path1848"
         d="M 3,-3 -3,3 M 0,-5 V 5"
         style="stroke:#000000;stroke-width:0.5"
         inkscape:connector-curvature="0" />
    </marker>
    <symbol
       id="*PAPER_SPACE-0" />
    <symbol
       id="*MODEL_SPACE-27" />
    <pattern
       id="Hatch-6"
       x="0"
       y="0"
       patternUnits="userSpaceOnUse"
       width="8"
       height="8">
      <path
         id="path1858"
         d="M8 4 l-4,4"
         stroke-width="0.25"
         stroke="#000000"
         linecap="square" />
      <path
         id="path1860"
         d="M6 2 l-4,4"
         stroke-width="0.25"
         stroke="#000000"
         linecap="square" />
      <path
         id="path1862"
         d="M4 0 l-4,4"
         stroke-width="0.25"
         stroke="#000000"
         linecap="square" />
    </pattern>
    <marker
       orient="auto"
       id="DistanceX-65"
       style="overflow:visible"
       refX="0"
       refY="0">
      <path
         id="path1855-7"
         d="M 3,-3 -3,3 M 0,-5 V 5"
         style="stroke:#000000;stroke-width:0.5"
         inkscape:connector-curvature="0" />
    </marker>
  </defs>
  <metadata
     id="metadata7">
    <rdf:RDF>
      <cc:Work
         rdf:about="">
        <dc:format>image/svg+xml</dc:format>
        <dc:type
           rdf:resource="http://purl.org/dc/dcmitype/StillImage" />
        <dc:title></dc:title>
      </cc:Work>
    </rdf:RDF>
  </metadata>
  <g
     inkscape:label="0"
     id="g145881"
     transform="translate(3.0705811,156.18135)" />
  <g
     inkscape:label="0"
     id="g101677"
     transform="translate(1.2170305,155.38115)" />
  <g
     transform="translate(-1.147247,152.76995)"
     id="g73486"
     style="stroke:#ff0000;stroke-opacity:1" />
  <g
     transform="translate(2.7720772,156.87255)"
     id="g44243" />
  <g
     style="display:inline"
     id="g6165"
     transform="matrix(0.01,0,0,0.01,231.7538,179.75884)">
    <g
       id="g2361"
       transform="translate(15505.129,5294.689)"
       style="display:inline;fill:none;stroke:#000000;stroke-opacity:1">
      <path
         style="fill:none;stroke:#000000;stroke-width:23.77875137;stroke-opacity:1"
         d="m -22057.48,-5306.7801 -235.689,-223.0714 -262.027,-84.7005 c -449.867,-145.4206 -796.599,-206.0104 -1268.029,-221.5818 -334.296,-11.0419 -467.142,-5.6066 -662.885,27.1214 -686.486,114.7791 -1228.019,434.4913 -1625.287,959.5425 -107.245,141.74 -150.418,171.5595 -246.813,170.471 -165.597,-1.8714 -247.702,-189.795 -158.613,-363.0358 103.29,-200.8578 440.216,-564.1435 708.732,-764.1829 295.076,-219.8253 719.014,-390.3383 1133.804,-456.0292 382.672,-60.6043 996.695,-35.281 1447.492,59.6972 189.644,39.9557 374.912,72.9203 411.707,73.2546 61.233,0.5564 66.27,-5.9288 59.45,-76.5345 -6.633,-68.6624 -24.443,-85.716 -162.02,-155.1367 -331.558,-167.3021 -1040.512,-290.8322 -1669.122,-290.8322 -818.717,0 -1473.793,224.5942 -2020.547,692.7489 -159.487,136.5601 -235.6,170.501 -314.815,140.3857 -124.372,-47.2821 -170.681,-216.1105 -97.888,-356.8657 95.057,-183.8043 759.808,-587.1848 1233.834,-748.7078 355.946,-121.2878 573.054,-158.5878 1002.386,-172.2141 485.71,-15.4156 729.462,16.0693 1336.245,172.5991 415.911,107.2911 592.676,128.4452 644.049,77.0762 176.829,-176.8138 -418.272,-522.7436 -1184.23,-688.3889 -216.952,-46.9178 -319.833,-54.1189 -784.731,-54.9264 -423.128,-0.7347 -577.323,7.8892 -737.171,41.23 -353.075,73.6433 -739.185,210.7419 -1068.801,379.5061 -342.356,175.287 -375.286,180.7513 -483.718,80.2683 -169.182,-156.7802 -76.122,-265.9026 446.762,-523.8691 680.962,-335.9555 1162.355,-452.6381 1866.708,-452.4619 636.398,0.1665 1058.188,84.7654 1773.009,355.6464 391.545,148.3759 462.285,159.6076 462.285,73.3989 0,-97.836 -214.165,-263.6399 -557.993,-431.9899 -500.732,-245.1762 -938.459,-365.0647 -1522.949,-417.1183 -527.06,-46.9393 -1159.722,35.4481 -1667.602,217.1607 -294.9,105.5111 -379.212,126.1656 -446.291,109.3312 -97.465,-24.46 -133.075,-79.2323 -133.075,-204.6834 0,-172.7141 71.093,-244.2232 317.525,-319.3833 278.87,-85.0539 557.615,-148.6504 859.572,-196.1143 356.913,-56.1028 1131.939,-56.2673 1511.4,-0.321 597.398,88.0778 1216.927,278.1222 1723.656,528.7418 170.582,84.3672 320.395,152.9561 332.916,152.4199 12.521,-0.5374 69.469,-43.2021 126.551,-94.8125 l 103.786,-93.8371 -41.53,-153.4116 c -63.021,-232.7977 -41.67,-488.6687 57.602,-690.3016 182.595,-370.8719 613.502,-691.4906 1262.47,-939.3459 138.674,-52.963 228.583,-100.743 233.031,-123.84 4.745,-24.636 -40.324,-64.405 -130.669,-115.304 -177.37,-99.927 -457.497,-287.614 -630.658,-422.545 -174.211,-135.749 -251.969,-281.086 -207.641,-388.097 16.479,-39.779 57.747,-89.974 91.707,-111.545 33.961,-21.571 68.831,-49.276 77.489,-61.566 21.733,-30.847 234.489,-28.233 253.872,3.12 14.918,24.132 3214.785,1551.7944 3250.413,1551.7944 9.285,0 738.657,-342.4004 1620.827,-760.8894 882.17,-418.488 1614.547,-760.888 1627.505,-760.888 12.957,0 17.75,-9.398 10.651,-20.883 -7.099,-11.486 16.347,-26.648 52.101,-33.694 73.928,-14.57 195.797,3.95 195.797,29.754 0,9.454 26.834,29.414 59.63,44.356 32.797,14.942 77.073,63.741 98.391,108.441 36.861,77.293 36.236,86.487 -12.754,187.679 -67.234,138.876 -410.499,405.259 -818.222,634.963 -90.346,50.899 -135.414,90.668 -130.669,115.304 4.448,23.097 94.357,70.877 233.03,123.84 1037.616,396.289 1499.368,967.3329 1319.49,1631.7994 l -42.112,155.5637 104.368,91.6467 c 57.402,50.4056 118.248,92.1028 135.212,92.6604 16.965,0.5564 107.923,-41.201 202.128,-92.7969 485.866,-266.1063 1196.323,-492.4865 1846.365,-588.3261 379.461,-55.9465 1154.4877,-55.782 1511.4007,0.321 301.957,47.464 580.702,111.0605 859.572,196.1143 246.432,75.1601 317.525,146.6692 317.525,319.3834 0,125.451 -35.611,180.2234 -133.075,204.6833 -67.079,16.8345 -151.392,-3.8201 -446.291,-109.3311 -507.88,-181.7127 -1140.5417,-264.1 -1667.6017,-217.1608 -584.49,52.0536 -1022.218,171.9421 -1522.95,417.1183 -343.827,168.3498 -557.992,334.1537 -557.992,431.9897 0,86.6303 67.421,75.1109 491.746,-84.0183 698.333,-261.8865 1102.713,-342.2573 1731.658,-344.1681 434.465,-1.3197 611.9627,18.5141 973.8407,108.8192 325.967,81.3436 536.544,161.1247 904.757,342.7838 522.883,257.9665 615.944,367.0889 446.762,523.8691 -108.432,100.483 -141.362,95.0187 -483.718,-80.2683 -329.616,-168.7642 -715.726,-305.8628 -1068.801,-379.5061 -159.848,-33.3408 -314.0427,-41.965 -737.1707,-41.23 -464.898,0.8085 -567.779,8.0086 -784.731,54.9264 -765.958,165.6453 -1361.059,511.5751 -1184.231,688.3889 51.356,51.3509 228.083,30.2275 644.049,-76.9806 536.851,-138.3636 818.934,-179.8195 1223.571,-179.8195 500.788,0 942.8337,90.5715 1379.1967,282.5859 396.807,174.608 871.404,485.3938 957.929,627.291 87.207,143.0179 45.412,325.0316 -86.119,375.0355 -79.216,30.1153 -155.328,-3.8256 -314.815,-140.3857 -359.421,-307.7517 -765.934,-508.7462 -1264.137,-625.034 -300.5307,-70.148 -956.7127,-85.6086 -1390.7487,-32.7677 -738.214,89.8724 -1270.767,292.0688 -1207.462,458.4417 16.714,43.9254 100.073,36.2887 481.815,-44.1401 446.255,-94.0211 1065.403,-120.2487 1439.081,-60.9607 394.151,62.5362 802.2777,219.8762 1098.1467,423.3547 246.02,169.1948 649.186,596.633 752.801,798.1209 91.138,177.2257 6.823,361.2819 -166.305,363.0358 -89.869,0.9106 -127.845,-30.1415 -316.733,-258.9836 -402.106,-487.161 -888.2817,-760.7807 -1547.6747,-871.0299 -195.743,-32.728 -328.59,-38.1633 -662.886,-27.1214 -471.429,15.5714 -818.161,76.1612 -1268.029,221.5818 l -262.026,84.7005 -235.689,223.0714 c -513.123,485.6533 -1160.221,814.8797 -2052.839,1044.4299 -502.39,129.1973 -1246.06,226.7659 -1561.392,274.5668 -65.457,9.9225 -109.883,8.2384 -160.327,9.2047 -77.166,-1.0751 -519.314,2.5614 -712.321,0.1353 -1478.899,-10.1724 -3295.989,-373.9732 -4327.183,-1328.3367 z m 3717.419,92.4297 c 183.104,-418.8415 361.542,-828.0116 396.53,-909.2667 l 63.614,-147.7368 h 229.468 229.467 l 63.615,147.7368 c 559.676,1299.7853 731.956,1671.2632 775.079,1671.2632 37.28,0 107.16,-143.6418 381.732,-784.6667 l 336.098,-784.6667 70.083,7.5554 c 38.546,4.1554 241.297,66.4485 450.559,138.429 477.724,164.3247 486.752,165.1714 531.116,49.8254 31.123,-80.9186 30.513,-93.8544 -6.35,-134.5844 -51.107,-56.4677 -585.162,-235.2678 -1024.558,-343.0189 -1244.825,-305.2627 -2368.857,-305.2627 -3613.682,0 -439.397,107.7511 -973.452,286.5512 -1024.559,343.0189 -36.862,40.73 -37.473,53.6658 -6.35,134.5844 44.364,115.346 53.392,114.4993 531.116,-49.8254 209.262,-71.9805 411.882,-134.2736 450.267,-138.429 l 69.791,-7.5554 286.905,668.2355 c 157.798,367.5295 310.437,724.1941 339.199,792.5878 39.268,93.3791 62.96,122.3212 95.118,116.1979 31.091,-5.9202 134.046,-216.8169 375.742,-769.6843 z m -693.789,-2257.7178 c 267.857,-46.7067 427.974,-108.6455 639.268,-247.2908 288.475,-189.2897 438.599,-377.389 590.242,-739.5505 65.432,-156.2685 76.279,-214.0523 87.667,-467.0248 12.812,-284.609 12.196,-289.2044 -43.619,-324.9549 -73.506,-47.0824 -2342.636,-943.7978 -2388.272,-943.7978 -49.354,0 -443.632,157.524 -640.809,256.019 -574.702,287.0796 -923.573,647.1902 -975.458,1006.8851 -20.533,142.3383 38.732,376.221 132.263,521.964 81.599,127.1515 319.172,360.5772 474.609,466.326 349.817,237.9904 877.068,423.9521 1391.114,490.6466 177.012,22.9662 546.638,13.2732 732.995,-19.2219 z m 3770.503,-23.2944 c 581.866,-114.5654 1111.652,-380.9069 1436.32,-722.0867 282.506,-296.8748 363.877,-636.5658 224.758,-938.2753 -121.052,-262.528 -461.467,-558.8778 -885.666,-771.022 -215.943,-107.9944 -612.413,-267.9404 -664.163,-267.9404 -45.108,0 -2314.652,896.9997 -2388.508,944.0185 -55.823,35.5383 -56.434,40.0822 -43.619,324.7342 11.388,252.9725 22.235,310.7563 87.667,467.0248 149.597,357.2749 297.12,543.6408 583.28,736.8562 314.342,212.2442 631.621,289.5446 1129.537,275.1959 176.565,-5.0882 410.742,-26.9155 520.394,-48.5052 z"
         id="path2363"
         inkscape:connector-curvature="0"
         sodipodi:nodetypes="cccssccccsccccscccssscsscscscssssscsccscccccscccsccccsssccsccsccccccccsccscsssssssscsccscssscccsscsscscsssscssscccscccccssccsccssccsccsccscscscsccccscscssscccsss" />
    </g>
    <g
       id="g6150">
      <path
         style="display:inline;fill:none;stroke:#ff0000;stroke-width:27.24241257;stroke-opacity:1"
         d="m -4139.5713,-2296.1286 c -412.0607,-88.353 -784.7424,-353.184 -890.0246,-632.463 -339.4544,-900.459 1350.1724,-1530.323 2323.8829,-866.301 233.3542,159.137 385.5613,379.194 384.7044,556.201 -1.2882,266.106 -288.0301,662.014 -602.3898,831.726 -271.9389,146.812 -816.8027,196.466 -1216.1729,110.837 z m 3102.7244,-0.454 c -359.8907,-76.838 -670.8477,-320.295 -835.0065,-653.749 -142.6154,-289.694 -106.2786,-469.805 144.6039,-716.762 262.589,-258.478 650.6504,-392.292 1139.90219,-393.069 508.415496,-0.807 879.7454,130.437 1160.5163,410.173 605.54591,603.312 -73.1733,1406.606 -1179.7997,1396.344 -131.7357,-1.219 -325.3328,-20.543 -430.21619,-42.937 z"
         id="path2423"
         inkscape:connector-curvature="0"
         sodipodi:nodetypes="cscscccccsccc"
         transform="translate(-5.8333333e-5,4.1666644e-6)" />
      <path
         inkscape:connector-curvature="0"
         id="path2447"
         d="m -2903.6486,-2506.8066 c 381.391,-169.684 506.9719,-524.225 276.1728,-779.694 -158.7083,-175.67 -337.4199,-252.296 -623.3006,-267.249 -520.745,-27.238 -886.3045,206.293 -886.3045,566.197 0,440.362 705.8464,715.475 1233.4323,480.746 z m 2269.04019,34.049 c 141.2623,-43.633 216.664,-87.581 320.9677,-187.08 129.0211,-123.076 136.8832,-138.643 146.6363,-290.313 12.7905,-198.909 -41.0196,-313.888 -205.0155,-438.06 -151.1613,-114.456 -348.3065,-171.701 -591.3201,-171.701 -237.72739,0 -430.85699,54.412 -582.15509,164.01 -177.6301,128.675 -226.2731,225.938 -214.8095,429.51 9.1284,162.107 16.3501,177.966 135.1049,296.722 233.5492,233.549 621.9843,310.762 990.59129,196.912 z"
         style="display:inline;fill:none;stroke:#000000;stroke-width:27.24241257;stroke-opacity:1"
         sodipodi:nodetypes="ccsscccccscccc" />
    </g>
  </g>
</svg>
